PathFileType	4	(X/Y/Z)	Patient4_TMGait_0pt8_01_left_02.trc.trc
DataRate	CameraRate	NumFrames	NumMarkers	Units	OrigDataRate	OrigDataStartFrame	OrigNumFrames
86.419753086420	86.419753086420	6	33	mm	86.419753086420	124	       141
Frame#	Time	Sacral			L.Shoulder			Chest			R.Shoulder			Neck			R.ASIS			L.ASIS			R.Thigh.Superior			R.Thigh.Lateral			R.Thigh.Inferior			R.Patella			L.Thigh.Superior			L.Thigh.Lateral			L.Thigh.Inferior			L.Patella			L.Shank.Superior			L.Shank.Lateral			L.Shank.Inferior			R.Shank.Superior			R.Shank.Lateral			R.Shank.Inferior			R.Heel			R.Midfoot.Superior			R.Midfoot.Lateral			R.Toe			L.Heel			L.Midfoot.Lateral			L.Midfoot.Superior			L.Toe			L.Elbow			L.Wrist			R.Elbow			R.Wrist			
		X1	Y1	Z1	X2	Y2	Z2	X3	Y3	Z3	X4	Y4	Z4	X5	Y5	Z5	X6	Y6	Z6	X7	Y7	Z7	X8	Y8	Z8	X9	Y9	Z9	X10	Y10	Z10	X11	Y11	Z11	X12	Y12	Z12	X13	Y13	Z13	X14	Y14	Z14	X15	Y15	Z15	X16	Y16	Z16	X17	Y17	Z17	X18	Y18	Z18	X19	Y19	Z19	X20	Y20	Z20	X21	Y21	Z21	X22	Y22	Z22	X23	Y23	Z23	X24	Y24	Z24	X25	Y25	Z25	X26	Y26	Z26	X27	Y27	Z27	X28	Y28	Z28	X29	Y29	Z29	X30	Y30	Z30	X31	Y31	Z31	X32	Y32	Z32	X33	Y33	Z33	

124	2.713285714286	758.307321735960	999.465218730300	498.000554538018	949.342514698182	1419.230690859847	318.876128522584	1057.838095173796	1336.350378997271	469.817034740903	995.210475459512	1414.001231514548	650.312202804407	961.921246036065	1475.557882687164	476.468058914839	985.373338217263	923.898430409060	605.889099773768	962.175910389271	940.159349025020	330.137011175992	969.495943485894	710.908813211868	583.307548747816	854.985745522714	626.062448242501	642.879520725848	911.821732858901	554.851958053198	565.669265800630	886.146089658615	470.571464370353	569.508408150436	1033.236656433726	764.952418138007	361.887229084285	985.612334995737	631.191999239514	286.907830637226	1092.531667620279	578.310601085847	347.854643634869	1120.355222728268	515.354043010437	346.701121925402	1109.010537676346	442.408895068923	338.462441618691	1049.867269805971	306.284704004475	296.944278245685	1147.188629062613	216.655820102138	351.399734782969	841.445868595850	390.398692829893	576.346618141793	750.961646533298	302.552112164005	638.109954162323	774.174330802176	201.129859684928	575.257490705517	618.352353580809	47.920319376340	539.331893723933	788.983302407716	96.467471729684	582.595345200769	697.727224993678	37.927275349365	616.556580104525	906.273457127421	38.952866749155	617.455725476524	1078.724073919353	37.634056636830	400.255267850519	1149.442936315980	42.017022886912	317.237842733967	1217.896144752706	121.302280486062	333.716527376067	1351.133443363901	95.092579160046	303.662201418201	779.195051565770	1114.039469158049	220.429307128645	708.511746956918	863.941483083295	223.030840362876	1132.083452209834	1100.797086880053	740.475968941342	1345.689938050857	1205.855444873527	662.667010246277	
125	2.724857142857	760.160062066519	997.478866902162	495.300607118887	949.504437129828	1417.612392149295	316.385183556570	1058.096299434407	1335.686883789752	467.784140298399	994.273353694569	1413.252586700852	647.935056805310	961.376759364719	1474.310271567263	473.922577809104	987.057783967149	922.254690272233	604.197591671557	964.883351958349	938.512113218706	328.537235382527	970.688554184883	709.131605471875	581.723923484287	855.657497797774	624.700110604448	641.284436425285	912.235805777867	552.981957295091	564.287996063611	885.611196209268	467.938184000929	568.161302203664	1036.193301183699	762.744877285895	360.616657571176	986.781153936129	628.997407454793	287.000501212338	1093.812768482322	576.110737145953	347.499612627662	1120.236610455853	512.110224183197	347.059712245003	1108.431398166606	438.940293722647	338.808625396072	1047.475777995487	303.472699696653	298.062735421827	1143.424657822356	212.929200253340	352.980717904295	839.123609188294	388.558198710355	575.236316419667	746.884024366576	302.752462000048	637.413034627582	767.753483665501	200.724829467368	574.902831121650	609.153108557307	49.608945432687	539.802496282657	780.220790603706	96.631594531199	582.786419138635	688.578700033219	38.556923703391	616.840555853173	897.119072090080	38.542770359488	617.584537671490	1071.410046958807	36.895607694139	402.650323859096	1141.274819031859	40.025613067495	318.727071045391	1212.543744807016	116.347316666882	335.718835577158	1344.677571593397	85.688308460619	303.876795662403	780.915570396796	1111.399441906722	218.420118770333	712.136255633283	860.703102657279	220.890306873258	1132.406716657754	1100.420793270896	738.130785111312	1341.892911573137	1211.690496345321	659.383841192757	
126	2.736428571429	762.029455878919	995.643624006490	492.488757646109	949.836304153256	1416.115040803694	313.751188785264	1058.450151964220	1335.148562573017	465.667041063375	993.363587260112	1412.632699071845	645.436340049220	960.980931888918	1473.238252373484	471.213450938825	988.711674283829	920.775468156754	602.385744506961	967.628175993005	937.158386603019	326.816474623549	972.143842854880	707.542605821408	580.039444110338	856.781501561775	623.344507947110	639.575129419046	913.343051619954	551.153583321857	562.891179160462	885.914265250948	465.137007130506	566.963756366285	1039.466004639271	761.115804089225	359.398804658659	988.731888788449	627.521780014361	286.823042824916	1095.739224730543	574.565938702917	347.111223390881	1120.743826390394	509.408872787201	347.343102989681	1108.400057537426	435.935516491518	339.060560838249	1045.597117891073	301.334446236021	298.426676427722	1139.499948331378	209.538763847912	354.260924573364	837.405461261643	386.698788091993	574.212998613125	743.195493501995	303.181375164477	636.718904032087	761.636717607189	200.519774710598	574.658628225306	600.024452187258	51.852645771697	540.350660566915	771.679447775565	96.862127570823	583.095286541730	679.466660887801	39.425734900561	617.172050649857	887.968621392976	38.174980019519	617.674889122800	1063.091097787480	36.557816502317	404.312120331136	1132.416674337312	38.374189193447	319.762294434065	1206.544652452947	111.639672883901	337.556095799095	1337.590632634859	76.393410726557	304.444157178430	783.460754652246	1108.409736245844	216.241144978796	716.913275714321	857.021824358193	218.549223942843	1131.858451171418	1099.658549690828	736.034048352363	1337.756998470451	1216.108383615909	656.418024325067	
127	2.748000000000	763.867260901494	994.051675835968	489.605214865442	950.352901072766	1414.811891493808	311.006193399449	1058.908430154210	1334.773047815357	463.482768216529	992.549158888541	1412.202964612912	642.840155321150	960.765404093272	1472.404282401174	468.367466779836	990.288331608207	919.538489895409	600.448414513356	970.334166512196	936.175371369286	324.962684884955	973.841657114381	706.214388570449	578.269314854252	858.368523415349	622.045454715618	637.775393508201	915.192344306465	549.429446822493	561.518691078394	887.147414106047	462.220814816847	566.018666799551	1042.935325053463	760.133587080341	358.213721160745	991.392907963396	626.813072270393	286.296198669065	1098.190685275510	573.687899513740	346.641811600381	1121.811269774154	507.342546039712	347.478375030172	1108.867641844969	433.490668249944	339.174702320324	1044.265027412551	299.924443377251	298.020487300976	1135.527916091262	206.628166875262	355.196541235403	836.361224436918	384.880910783074	573.352306824073	739.959634176968	303.930370291853	636.057813917945	755.911798024895	200.599313338389	574.570946483749	591.041776962059	54.806054959814	540.973856813943	763.435449383586	97.172724578572	583.535386368811	670.432456473343	40.625064120814	617.543580280665	878.821405433826	37.861736112398	617.714975731806	1054.181896961662	36.548033480938	405.284128950903	1123.252237254402	37.104154309099	320.365555191711	1200.055608538907	107.456579178179	339.128053829756	1330.090261633347	67.885251832360	305.235918140538	786.842802781380	1105.173473489083	213.895902091299	722.863898285209	853.007984070592	216.012172029020	1130.355084831078	1098.524787043728	734.202242129288	1333.332667252227	1219.083990765734	653.774420673379	
128	2.759571428571	765.628870283486	992.784832389897	486.674416655256	951.058362327389	1413.771172633888	308.185881234331	1059.471041679233	1334.597497602163	461.252479312206	991.883992638403	1412.021859594285	640.178424534194	960.744833219348	1471.861194893697	465.419301552139	991.744458868826	918.615137103058	598.380507907367	972.938294977756	935.618966161496	322.964653664921	975.774028733616	705.215382018213	576.423437692221	860.448330351795	620.849280311212	635.916569496360	917.843233272144	547.872932422253	560.211802600884	889.404648335344	459.259234821467	565.423164076552	1046.473870642885	759.818900834594	357.023362431186	994.617096407328	626.847417280109	285.387312231765	1100.984920711293	573.423297406655	346.050293390083	1123.301981424086	505.922373626855	347.417502583467	1109.698646218941	431.625515548191	339.134983093278	1043.373518054807	299.225400497352	296.930860583059	1131.512346559600	204.266946784306	355.794220476509	836.082818927191	383.168021767141	572.728130779100	737.272531127999	305.091653899606	635.459885853650	750.693875157757	201.051253602039	574.679632510675	582.314723610724	58.641570394791	541.663280850814	755.579182955722	97.589650604429	584.115879465317	661.539873115730	42.272450365176	617.944213608835	869.681212466430	37.608606217998	617.696675742947	1044.987916162634	36.770794190740	405.671326548337	1114.027705543263	36.215387075305	320.595816843621	1193.148751767799	103.984666407125	340.375786681778	1322.296522849964	60.666983096244	306.105366003948	791.049673303268	1101.811093538983	211.388484799688	730.012769424330	848.789222259909	213.283942209295	1127.815721646144	1097.060086437868	732.637300360968	1328.660889754696	1220.577604096075	651.456926486077	
129	2.771142857143	767.278216003660	991.903867547029	483.703081122787	951.946530523429	1413.049288067123	305.325511046161	1060.128073609264	1334.654713239119	458.999515181649	991.395463636286	1412.136036814684	637.484845006066	960.914904521454	1471.646118265934	462.408579836637	993.043313141426	918.062321834403	596.180246226044	975.395980729149	935.515664456092	320.816155411936	977.947513346226	704.603306830179	574.513107882176	863.066525789602	619.794583909218	634.037158128774	921.360866073435	546.543439464263	559.012851654700	892.772210177948	456.335300984194	565.255792848624	1049.952795241224	760.127398165253	355.769265714767	998.168171223338	627.519250966431	284.115929521128	1103.879323598659	573.648721999707	345.305407599207	1125.004457445543	505.075187215396	347.147317469771	1110.676812923015	430.286998914583	338.951101122437	1042.700758150554	299.147643431907	295.332296643577	1127.375388068665	202.451302845506	356.102692858207	836.680462245006	381.622070908150	572.402202971942	735.260757240270	306.749809389469	634.951281985479	746.120140444265	201.961785537070	575.012136440097	573.989554999610	63.541752733137	542.402491207435	748.211441872379	98.156406842476	584.837700844365	652.877522972310	44.512033943873	618.359639257714	860.558506149917	37.410978441700	617.618080179331	1035.708715656780	37.125808558359	405.614216800661	1104.871432617988	35.671336393371	320.536332089856	1185.849933107243	101.304498926790	341.286968191207	1314.265337353114	55.010370881583	306.922825445984	796.045753495181	1098.450932123036	208.721570654652	738.389146270779	844.504113643119	210.369601682510	1124.165553220139	1095.329366254569	731.325198799575	1323.769705975223	1220.533698403473	649.470565637517	
